<svg width="19" height="14" viewBox="0 0 19 14" fill="none" xmlns="http://www.w3.org/2000/svg">
<path fill-rule="evenodd" clip-rule="evenodd" d="M6.83289 0.0479473C7.32147 0.222473 7.55678 0.805646 7.32518 1.26796C7.29212 1.33394 6.31117 2.34376 5.14527 3.512L3.02543 5.6361L10.6877 5.64579L18.3499 5.65551L18.4983 5.73559C19.1545 6.08972 19.1545 6.96543 18.4983 7.31957L18.3499 7.39965L10.6877 7.40937L3.02543 7.41906L5.14527 9.54316C6.31117 10.7114 7.29275 11.7224 7.32656 11.7898C7.53381 12.2032 7.35016 12.7533 6.93283 12.9691C6.77507 13.0507 6.46989 13.0755 6.27076 13.0229C6.11787 12.9825 5.85343 12.729 3.14036 10.0222C-0.0315268 6.85767 1.52588e-05 6.89277 1.52588e-05 6.52758C1.52588e-05 6.16238 -0.031564 6.19753 3.14036 3.03317C5.69278 0.486877 6.12436 0.071289 6.2522 0.0367773C6.4477 -0.0159552 6.66575 -0.0117617 6.83289 0.0479473Z" fill="#070427"/>
</svg>
