<svg width="25" height="25" viewBox="0 0 25 25" fill="none" xmlns="http://www.w3.org/2000/svg">
<path d="M22.9167 8.87498V4.14581C22.9167 2.67706 22.25 2.08331 20.5938 2.08331H16.3854C14.7292 2.08331 14.0625 2.67706 14.0625 4.14581V8.86456C14.0625 10.3437 14.7292 10.9271 16.3854 10.9271H20.5938C22.25 10.9375 22.9167 10.3437 22.9167 8.87498Z" stroke="#070427" stroke-width="1.5" stroke-linecap="round" stroke-linejoin="round"/>
<path d="M22.9167 20.5938V16.3854C22.9167 14.7292 22.25 14.0625 20.5938 14.0625H16.3854C14.7292 14.0625 14.0625 14.7292 14.0625 16.3854V20.5938C14.0625 22.25 14.7292 22.9167 16.3854 22.9167H20.5938C22.25 22.9167 22.9167 22.25 22.9167 20.5938Z" stroke="#070427" stroke-width="1.5" stroke-linecap="round" stroke-linejoin="round"/>
<path d="M10.9375 8.87498V4.14581C10.9375 2.67706 10.2709 2.08331 8.61462 2.08331H4.40629C2.75004 2.08331 2.08337 2.67706 2.08337 4.14581V8.86456C2.08337 10.3437 2.75004 10.9271 4.40629 10.9271H8.61462C10.2709 10.9375 10.9375 10.3437 10.9375 8.87498Z" stroke="#070427" stroke-width="1.5" stroke-linecap="round" stroke-linejoin="round"/>
<path d="M10.9375 20.5938V16.3854C10.9375 14.7292 10.2709 14.0625 8.61462 14.0625H4.40629C2.75004 14.0625 2.08337 14.7292 2.08337 16.3854V20.5938C2.08337 22.25 2.75004 22.9167 4.40629 22.9167H8.61462C10.2709 22.9167 10.9375 22.25 10.9375 20.5938Z" stroke="#070427" stroke-width="1.5" stroke-linecap="round" stroke-linejoin="round"/>
</svg>
