<svg width="55" height="56" viewBox="0 0 55 56" fill="none" xmlns="http://www.w3.org/2000/svg">
<ellipse cx="27.9197" cy="28" rx="27.0806" ry="28" fill="#112650"/>
<path fill-rule="evenodd" clip-rule="evenodd" d="M21.0976 20.0597C20.1233 20.3146 19.3067 21.1709 19.0716 22.1842C18.984 22.5617 18.9958 23.2221 19.0965 23.5758C19.2067 23.9631 19.4572 24.4491 19.6928 24.7332C19.9507 25.0441 20.5235 25.431 20.909 25.5547C22.4325 26.044 23.993 25.1693 24.4398 23.5758C24.5395 23.2201 24.552 22.555 24.466 22.1842C24.2495 21.2519 23.5366 20.4412 22.6584 20.1284C22.2735 19.9914 21.4906 19.9569 21.0976 20.0597ZM22.341 21.6858C23.2553 22.1796 23.2402 23.4988 22.3143 24.0058C22.0446 24.1536 21.493 24.1536 21.2232 24.0058C20.4942 23.6066 20.2956 22.7011 20.7901 22.0308C21.1418 21.5541 21.8185 21.4036 22.341 21.6858ZM27.5652 22.1075C27.3321 22.1935 27.2594 22.2603 27.1437 22.4947C26.9678 22.8511 27.0823 23.242 27.4353 23.4903L27.5914 23.6002H31.837C35.493 23.6002 36.1013 23.5901 36.2177 23.5279C36.5146 23.3692 36.6867 22.9668 36.6001 22.6341C36.5414 22.409 36.2942 22.1507 36.0751 22.0857C35.9744 22.0558 34.3705 22.0385 31.828 22.0399C28.5349 22.0416 27.7083 22.0547 27.5652 22.1075ZM33.2594 30.4607C32.0127 30.7409 31.1068 31.8986 31.1008 33.2193C31.0971 34.0235 31.3576 34.6867 31.8978 35.2482C32.5927 35.9704 33.5603 36.2577 34.5146 36.0252C35.4837 35.7889 36.3195 34.9198 36.5555 33.9029C36.6431 33.5254 36.6313 32.865 36.5306 32.5113C36.1046 31.0148 34.7031 30.1362 33.2594 30.4607ZM34.4053 32.0859C35.1205 32.4632 35.3267 33.3613 34.8532 34.0371C34.6341 34.3499 34.3418 34.5017 33.9111 34.5264C33.585 34.5451 33.5271 34.5338 33.2925 34.406C32.2772 33.853 32.4218 32.3676 33.5275 31.9925C33.7222 31.9264 34.1992 31.9772 34.4053 32.0859ZM19.3555 32.5968C19.1247 32.7549 18.9644 33.1105 19.0068 33.3701C19.05 33.6345 19.3079 33.9334 19.5513 34.0012C19.6707 34.0344 21.1399 34.047 23.879 34.0382L28.026 34.025L28.2046 33.9102C28.4466 33.7546 28.5867 33.4637 28.5559 33.1808C28.529 32.9342 28.4178 32.7558 28.1918 32.5968L28.0357 32.4869H23.7758H19.5159L19.3555 32.5968Z" fill="white"/>
</svg>
