<svg width="24" height="24" viewBox="0 0 24 24" fill="none" xmlns="http://www.w3.org/2000/svg">
<path fill-rule="evenodd" clip-rule="evenodd" d="M14.905 5.12156C14.905 5.45952 14.9589 5.78512 15.0586 6.09022L8.29679 9.9452C7.72313 9.28874 6.88011 8.87343 5.94224 8.87343C4.21881 8.87343 2.81567 10.2758 2.81567 12C2.81567 13.7242 4.21881 15.1266 5.94224 15.1266C6.88025 15.1266 7.72338 14.7111 8.29704 14.0545L15.0587 17.9094C14.959 18.2146 14.905 18.5403 14.905 18.8784C14.905 20.6026 16.3083 22.005 18.0316 22.005C19.755 22.005 21.1581 20.6026 21.1581 18.8784C21.1581 17.1542 19.755 15.7519 18.0316 15.7519C17.0941 15.7519 16.2512 16.1669 15.6776 16.8231L8.91546 12.9679C9.01497 12.6631 9.0688 12.3377 9.0688 12C9.0688 11.6621 9.01492 11.3366 8.91531 11.0316L15.6773 7.17664C16.251 7.83294 17.0939 8.24812 18.0316 8.24812C19.755 8.24812 21.1581 6.84575 21.1581 5.12156C21.1581 3.39737 19.755 1.995 18.0316 1.995C16.3083 1.995 14.905 3.39737 14.905 5.12156ZM16.1556 5.12156C16.1556 4.0868 16.9977 3.24562 18.0316 3.24562C19.0654 3.24562 19.9075 4.0868 19.9075 5.12156C19.9075 6.15632 19.0654 6.9975 18.0316 6.9975C16.9977 6.9975 16.1556 6.15632 16.1556 5.12156ZM16.1556 18.8784C16.1556 17.8437 16.9977 17.0025 18.0316 17.0025C19.0654 17.0025 19.9075 17.8437 19.9075 18.8784C19.9075 19.9132 19.0654 20.7544 18.0316 20.7544C16.9977 20.7544 16.1556 19.9132 16.1556 18.8784ZM5.94224 10.1241C4.90839 10.1241 4.0663 10.9652 4.0663 12C4.0663 13.0348 4.90839 13.8759 5.94224 13.8759C6.97608 13.8759 7.81817 13.0348 7.81817 12C7.81817 10.9652 6.97608 10.1241 5.94224 10.1241Z" fill="#070427"/>
<path d="M15.0586 6.09022L15.1576 6.26397L15.2994 6.18317L15.2487 6.02811L15.0586 6.09022ZM8.29679 9.9452L8.14619 10.0768L8.25379 10.1999L8.39584 10.119L8.29679 9.9452ZM8.29704 14.0545L8.3961 13.8807L8.25402 13.7998L8.14643 13.9229L8.29704 14.0545ZM15.0587 17.9094L15.2488 17.9715L15.2995 17.8165L15.1578 17.7357L15.0587 17.9094ZM15.6776 16.8231L15.5785 16.9968L15.7205 17.0778L15.8281 16.9547L15.6776 16.8231ZM8.91546 12.9679L8.72533 12.9059L8.67472 13.0609L8.8164 13.1417L8.91546 12.9679ZM8.91531 11.0316L8.81626 10.8579L8.67456 10.9386L8.72519 11.0937L8.91531 11.0316ZM15.6773 7.17664L15.8279 7.04502L15.7203 6.92192L15.5783 7.0029L15.6773 7.17664ZM15.2487 6.02811C15.1555 5.74278 15.105 5.43813 15.105 5.12156H14.705C14.705 5.48091 14.7623 5.82746 14.8685 6.15233L15.2487 6.02811ZM8.39584 10.119L15.1576 6.26397L14.9595 5.91647L8.19773 9.77146L8.39584 10.119ZM5.94224 9.07343C6.81978 9.07343 7.60876 9.4618 8.14619 10.0768L8.44739 9.8136C7.8375 9.11568 6.94044 8.67343 5.94224 8.67343V9.07343ZM3.01567 12C3.01567 10.3863 4.32924 9.07343 5.94224 9.07343V8.67343C4.10839 8.67343 2.61567 10.1653 2.61567 12H3.01567ZM5.94224 14.9266C4.32924 14.9266 3.01567 13.6137 3.01567 12H2.61567C2.61567 13.8347 4.10839 15.3266 5.94224 15.3266V14.9266ZM8.14643 13.9229C7.60899 14.5381 6.81991 14.9266 5.94224 14.9266V15.3266C6.94058 15.3266 7.83777 14.8842 8.44766 14.1861L8.14643 13.9229ZM15.1578 17.7357L8.3961 13.8807L8.19799 14.2282L14.9597 18.0832L15.1578 17.7357ZM15.105 18.8784C15.105 18.5617 15.1555 18.257 15.2488 17.9715L14.8686 17.8473C14.7624 18.1723 14.705 18.5189 14.705 18.8784H15.105ZM18.0316 21.805C16.4187 21.805 15.105 20.4921 15.105 18.8784H14.705C14.705 20.7131 16.1979 22.205 18.0316 22.205V21.805ZM20.9581 18.8784C20.9581 20.4921 19.6446 21.805 18.0316 21.805V22.205C19.8654 22.205 21.3581 20.7131 21.3581 18.8784H20.9581ZM18.0316 15.9519C19.6446 15.9519 20.9581 17.2647 20.9581 18.8784H21.3581C21.3581 17.0438 19.8654 15.5519 18.0316 15.5519V15.9519ZM15.8281 16.9547C16.3656 16.34 17.1544 15.9519 18.0316 15.9519V15.5519C17.0337 15.5519 16.1369 15.9939 15.527 16.6914L15.8281 16.9547ZM8.8164 13.1417L15.5785 16.9968L15.7766 16.6493L9.01451 12.7942L8.8164 13.1417ZM8.8688 12C8.8688 12.3163 8.8184 12.6208 8.72533 12.9059L9.10558 13.03C9.21155 12.7054 9.2688 12.3591 9.2688 12H8.8688ZM8.72519 11.0937C8.81835 11.3789 8.8688 11.6835 8.8688 12H9.2688C9.2688 11.6408 9.2115 11.2943 9.10543 10.9695L8.72519 11.0937ZM15.5783 7.0029L8.81626 10.8579L9.01437 11.2054L15.7764 7.35039L15.5783 7.0029ZM18.0316 8.04812C17.1542 8.04812 16.3654 7.65987 15.8279 7.04502L15.5267 7.30827C16.1366 8.00601 17.0336 8.44812 18.0316 8.44812V8.04812ZM20.9581 5.12156C20.9581 6.73526 19.6446 8.04812 18.0316 8.04812V8.44812C19.8654 8.44812 21.3581 6.95624 21.3581 5.12156H20.9581ZM18.0316 2.195C19.6446 2.195 20.9581 3.50786 20.9581 5.12156H21.3581C21.3581 3.28688 19.8654 1.795 18.0316 1.795V2.195ZM15.105 5.12156C15.105 3.50786 16.4187 2.195 18.0316 2.195V1.795C16.1979 1.795 14.705 3.28687 14.705 5.12156H15.105ZM18.0316 3.04562C16.8873 3.04562 15.9556 3.97628 15.9556 5.12156H16.3556C16.3556 4.19732 17.1081 3.44562 18.0316 3.44562V3.04562ZM20.1075 5.12156C20.1075 3.97628 19.1758 3.04562 18.0316 3.04562V3.44562C18.955 3.44562 19.7075 4.19732 19.7075 5.12156H20.1075ZM18.0316 7.19749C19.1758 7.19749 20.1075 6.26684 20.1075 5.12156H19.7075C19.7075 6.04579 18.955 6.7975 18.0316 6.7975V7.19749ZM15.9556 5.12156C15.9556 6.26684 16.8873 7.19749 18.0316 7.19749V6.7975C17.1081 6.7975 16.3556 6.04579 16.3556 5.12156H15.9556ZM18.0316 16.8025C16.8873 16.8025 15.9556 17.7332 15.9556 18.8784H16.3556C16.3556 17.9542 17.1081 17.2025 18.0316 17.2025V16.8025ZM20.1075 18.8784C20.1075 17.7332 19.1758 16.8025 18.0316 16.8025V17.2025C18.955 17.2025 19.7075 17.9542 19.7075 18.8784H20.1075ZM18.0316 20.9544C19.1758 20.9544 20.1075 20.0237 20.1075 18.8784H19.7075C19.7075 19.8027 18.955 20.5544 18.0316 20.5544V20.9544ZM15.9556 18.8784C15.9556 20.0237 16.8873 20.9544 18.0316 20.9544V20.5544C17.1081 20.5544 16.3556 19.8027 16.3556 18.8784H15.9556ZM4.2663 12C4.2663 11.0758 5.01879 10.3241 5.94224 10.3241V9.92406C4.798 9.92406 3.8663 10.8547 3.8663 12H4.2663ZM5.94224 13.6759C5.01879 13.6759 4.2663 12.9242 4.2663 12H3.8663C3.8663 13.1453 4.798 14.0759 5.94224 14.0759V13.6759ZM7.61817 12C7.61817 12.9242 6.86568 13.6759 5.94224 13.6759V14.0759C7.08647 14.0759 8.01817 13.1453 8.01817 12H7.61817ZM5.94224 10.3241C6.86568 10.3241 7.61817 11.0758 7.61817 12H8.01817C8.01817 10.8547 7.08647 9.92406 5.94224 9.92406V10.3241Z" fill="#070427"/>
</svg>
